# Blender 4.1.1
# www.blender.org
o 0000_icewand_notmoving1_material1
v -1.791245 43.256313 1.911227
v -1.094100 42.720585 2.666695
v -0.531272 42.534084 1.205860
v -0.408617 43.461369 2.549104
v 0.126512 42.389069 1.842970
v 0.140811 42.907986 2.311512
v 0.695709 43.462372 2.502825
v 0.165993 43.619869 2.780169
v 1.353221 44.552437 2.769903
v 0.177436 44.753960 3.056766
v 0.194602 45.391598 3.606851
v -1.034870 44.545364 2.864167
v -0.724244 45.387871 3.405065
v -0.849393 46.669624 2.345724
v -0.414980 46.686230 3.438010
v -1.889132 45.556026 1.302991
v -1.781848 44.159008 2.144547
v 0.733632 42.531101 1.150763
v 1.410550 42.738808 2.558091
v 2.016459 43.270664 1.750470
v 0.585377 43.040104 -0.339585
v 2.118041 44.089466 0.267360
v 2.027853 44.099373 -1.462454
v 2.649883 44.383034 -1.310488
v 2.628453 45.586601 -1.996167
v 2.653434 46.767757 -1.300547
v 2.031343 47.068619 -1.441259
v 2.110222 47.068218 0.272121
v 0.062272 42.370899 0.183058
v 0.426368 39.511875 -0.918726
v 0.412368 39.592594 -1.293240
v 0.157188 37.372921 -1.807090
v -0.000016 39.571701 -1.511792
v -0.012409 37.773636 -2.142021
v -0.171090 37.343349 -1.791414
v -0.390703 36.996803 -2.449808
v -0.008479 36.836864 -1.646554
v 0.003100 36.323978 -1.951139
v 0.357647 36.997612 -2.444362
v -0.022434 36.147400 -2.585371
v -0.050604 36.485847 -3.113062
v -0.051418 37.148933 -3.234129
v -0.046745 37.710167 -2.793917
v 2.025856 44.173359 1.983791
v 2.144140 45.574116 1.122874
v 1.109393 46.654099 2.251554
v 1.100804 45.384949 3.306226
v 0.756876 46.689781 3.346730
v -0.408617 43.461369 2.549104
v -0.547947 43.100193 3.996014
v -1.034870 44.545364 2.864167
v -0.683526 42.595608 3.693503
v -1.094100 42.720585 2.666695
v -1.020540 42.461563 3.625060
v -1.791245 43.256313 1.911227
v -1.371538 42.593899 3.735151
v -1.343425 43.023449 4.246496
v -1.350026 41.358406 4.907424
v -0.996356 43.096184 4.331988
v -0.941760 41.392250 5.017448
v -0.580275 41.363087 4.885525
v -0.959611 39.883892 4.959639
v -0.602346 40.010574 4.846470
v -0.983675 39.475502 4.650877
v -0.615023 40.108990 4.377285
v -0.999346 40.257301 4.177857
v -0.584478 41.224483 4.318004
v -0.981005 41.162140 4.213132
v -1.380077 40.006332 4.888970
v -1.406174 40.100441 4.426529
v -1.375200 41.196941 4.355967
v -1.781848 44.159008 2.144547
v -0.286373 39.515362 -0.886768
v -0.340205 39.564163 -1.252331
v -0.558330 43.060677 -0.937112
v -0.018583 43.501080 -1.246981
v -2.076277 44.087807 -1.274372
v -2.123616 45.577602 -2.118381
v -2.721293 45.568077 -1.757155
v -2.097516 47.062248 -1.262866
v -2.696312 46.749233 -1.061534
v -2.012769 47.047600 0.453090
v -2.642350 46.745380 0.310445
v -2.620920 45.541813 0.996124
v -2.699863 44.364510 -1.071476
v -2.010819 44.083096 0.445753
v -0.540350 43.035229 -0.265960
v -2.632481 44.364964 0.293760
v 0.124077 46.827225 -1.843109
v 1.410550 42.738808 2.558091
v 1.427101 42.471619 3.506397
v 2.016459 43.270664 1.750470
v 1.095392 42.594013 3.612320
v 0.695709 43.462372 2.502825
v 1.018823 43.099171 3.927447
v 1.353221 44.552437 2.769903
v 1.457154 43.091991 4.215901
v 1.808976 43.030457 4.116476
v 1.867365 41.373142 4.766862
v 1.788844 42.600468 3.584529
v 1.850172 41.211239 4.194804
v 1.433926 41.177834 4.105381
v 1.454164 40.253109 4.061770
v 1.072012 41.225994 4.248584
v 1.079616 40.109608 4.310812
v 1.119134 40.019810 4.766509
v 1.475275 39.476055 4.548647
v 1.493899 39.879700 4.843552
v 1.908174 40.014549 4.740442
v 1.882076 40.108654 4.278001
v 2.025856 44.173359 1.983791
v 1.103055 41.373211 4.802618
v 1.467302 41.422192 4.907120
v -0.698451 40.209457 0.763883
v -0.531272 42.534084 1.205860
v 0.126512 42.389069 1.842970
v 0.062272 42.370899 0.183058
v 0.052959 40.224472 -0.011942
v 0.849030 40.218376 0.699483
v 0.952368 37.262012 0.790501
v 0.113151 40.221481 1.445387
v 0.128347 37.254822 1.680243
v -0.774980 37.267029 0.867886
v 0.112502 24.235542 1.441251
v -1.030429 24.250046 0.334567
v 0.056807 23.214544 0.279997
v -0.007439 24.224712 -0.904040
v 1.249082 24.245535 0.234043
v 0.733632 42.531101 1.150763
v 0.060349 37.264713 -0.005423
v 2.742246 45.564640 0.750368
v 2.707396 46.763901 0.071432
v 2.717265 44.383488 0.054747
v 1.993935 45.593475 -2.313207
v 0.565286 43.051743 -0.987559
vn 0.5362 0.8382 0.0996
vn -0.7141 0.6049 -0.3524
vn 0.6097 0.6251 -0.4872
vn 0.3275 0.6282 -0.7057
vn -0.3888 0.6233 -0.6785
vn 0.1835 0.5360 -0.8240
vn -0.2603 0.5373 -0.8022
vn -0.3263 0.4060 -0.8537
vn -0.1923 0.2344 -0.9529
vn -0.0722 0.6526 -0.7542
vn 0.2454 0.3986 -0.8837
vn 0.1131 0.2344 -0.9656
vn 0.0079 0.6531 -0.7573
vn 0.1862 0.4813 -0.8566
vn 0.9416 -0.1552 -0.2990
vn 0.2145 -0.0263 -0.9764
vn 0.9100 -0.2077 -0.3588
vn 0.7948 -0.2085 -0.5699
vn 0.7378 -0.3058 -0.6017
vn -0.6499 0.6173 -0.4434
vn 0.6639 0.6245 -0.4115
vn -0.5425 0.8285 0.1386
vn -0.5801 0.7514 0.3143
vn -0.6195 0.7044 0.3465
vn -0.5739 0.8182 0.0346
vn -0.4202 0.9070 0.0271
vn -0.3998 0.4483 0.7995
vn -0.9994 0.0013 0.0336
vn -0.4011 -0.4585 0.7930
vn -0.4390 -0.8983 0.0200
vn -0.6174 0.7236 0.3086
vn -0.7815 0.1352 -0.6091
vn -0.9983 0.0375 0.0454
vn -0.9932 0.1006 0.0588
vn -0.4570 -0.1504 0.8767
vn -0.9342 -0.1123 0.3387
vn 0.9492 -0.1099 0.2948
vn 0.9089 -0.4075 -0.0887
vn 0.9019 0.1769 -0.3940
vn -0.3474 0.2984 -0.8890
vn -0.9451 0.2195 -0.2422
vn 0.8937 0.2439 -0.3767
vn -0.9078 -0.4174 -0.0397
vn -0.9085 0.1659 -0.3835
vn -0.9049 0.2020 -0.3746
vn 0.8979 0.4134 -0.1513
vn -0.9050 0.4178 -0.0799
vn -0.8939 0.3541 0.2748
vn 0.9120 0.3657 0.1859
vn 0.9097 0.0756 0.4082
vn -0.8780 0.0849 0.4710
vn 0.8998 -0.4362 -0.0049
vn -0.8846 -0.4573 0.0911
vn 0.9013 -0.2720 0.3371
vn -0.8692 -0.3007 0.3926
vn -0.9982 0.0246 -0.0548
vn -0.9972 0.0498 -0.0560
vn -0.7920 -0.2697 -0.5477
vn -0.8161 -0.2259 -0.5320
vn -0.9657 -0.1621 -0.2029
vn -0.2766 0.4598 -0.8439
vn -0.9274 -0.2354 -0.2908
vn -0.3148 -0.0536 -0.9477
vn -0.0761 -0.1641 -0.9835
vn -0.8727 -0.4473 -0.1957
vn -0.9617 0.2731 -0.0244
vn -0.6609 0.6663 0.3453
vn -0.4025 0.8754 0.2675
vn 0.4511 0.8697 0.2004
vn 0.4053 0.8852 0.2282
vn 0.9747 0.1419 -0.1728
vn 0.9991 -0.0193 -0.0387
vn -0.4577 -0.6387 -0.6185
vn 0.3068 -0.6733 -0.6728
vn 0.2929 -0.3538 -0.8883
vn 0.2707 -0.3518 -0.8961
vn -0.3454 -0.3598 -0.8668
vn -0.5547 -0.3710 -0.7447
vn -0.9674 0.1295 0.2176
vn 0.2574 0.0340 -0.9657
vn -0.3397 0.0400 -0.9397
vn -0.3123 0.0325 -0.9494
vn -0.4242 0.5619 -0.7102
vn -0.8296 0.5415 0.1360
vn -0.2395 0.4991 0.8328
vn -0.4415 0.0597 0.8953
vn -0.9999 0.0162 0.0034
vn -0.9990 0.0291 0.0331
vn -0.9978 -0.0618 0.0225
vn -0.2507 -0.0326 0.9675
vn -0.2918 0.3789 0.8782
vn 0.4056 0.3871 0.8280
vn -0.3273 0.3813 0.8646
vn 0.1685 0.0097 -0.9857
vn 0.2941 0.5653 -0.7706
vn 0.3046 0.4975 0.8122
vn 0.8143 0.5761 0.0713
vn 0.9990 -0.0217 -0.0393
vn 0.9975 -0.0322 -0.0629
vn 0.3446 0.3805 0.8582
vn 0.3370 -0.0435 0.9405
vn 0.5096 0.0409 0.8595
vn 0.9990 -0.0203 -0.0397
vn 0.7101 -0.5468 -0.4435
vn 0.9821 0.0375 -0.1846
vn 0.3577 0.2890 -0.8880
vn 0.9165 0.1943 -0.3496
vn 0.6021 -0.1448 0.7852
vn 0.9856 0.1068 -0.1309
vn 0.6066 -0.0338 0.7943
vn 0.5302 -0.0545 0.8461
vn 0.1216 0.4672 0.8758
vn 0.1288 0.4919 0.8611
vn 0.4568 0.4494 0.7677
vn 0.4678 -0.4474 0.7622
vn 0.4871 -0.4508 0.7480
vn 0.4551 -0.8899 -0.0301
vn 0.4363 -0.8996 -0.0197
vn 0.9992 -0.0046 -0.0393
vn 0.3544 -0.4406 -0.8248
vn 0.3969 -0.4490 -0.8005
vn 0.4501 0.4481 0.7724
vn 0.9994 -0.0013 -0.0336
vn 0.9993 -0.0013 -0.0374
vn 0.9911 -0.0042 -0.1334
vn 0.3374 0.4525 -0.8255
vn 0.4021 0.9155 -0.0128
vn 0.9906 0.0245 -0.1346
vn 0.9976 0.0644 -0.0243
vn 0.5578 0.8298 0.0165
vn 0.5739 0.8187 -0.0196
vn 0.9866 0.0946 -0.1327
vn 0.7036 0.1724 -0.6893
vn 0.6456 0.7025 0.2996
vn 0.5852 0.7687 0.2581
vn 0.6287 0.7373 0.2472
vn 0.9986 0.0196 -0.0493
vn 0.4171 0.9086 -0.0209
vn 0.4038 0.4659 -0.7873
vn 0.1704 -0.4942 0.8525
vn -0.2182 0.1812 0.9589
vn -0.4264 0.8687 0.2522
vn 0.4029 0.8828 0.2417
vn 0.6687 0.6831 0.2937
vn 0.9577 0.2422 -0.1555
vn 0.8470 -0.4365 -0.3034
vn 0.4233 -0.6221 -0.6587
vn -0.3070 -0.6805 -0.6653
vn -0.3113 -0.3566 -0.8808
vn -0.3749 0.8848 0.2768
vn -0.9880 0.1363 -0.0728
vn -0.9986 -0.0155 0.0503
vn -0.9989 -0.0275 0.0378
vn -0.2233 0.3838 0.8960
vn 0.4067 0.3856 0.8282
vn -0.3264 0.3957 0.8584
vn -0.2059 -0.0506 0.9773
vn 0.3835 0.3841 0.8399
vn 0.3636 -0.0359 0.9309
vn 0.5395 0.0505 0.8405
vn 0.9963 0.0020 -0.0860
vn 0.8421 0.5383 0.0330
vn 0.3341 0.5069 0.7946
vn 0.3584 0.5399 -0.7616
vn -0.2450 0.0115 -0.9694
vn -0.3671 0.5597 -0.7429
vn -0.9988 -0.0308 0.0387
vn -0.4354 0.0552 0.8985
vn -0.9984 -0.0250 0.0513
vn -0.2445 0.5101 0.8247
vn -0.7965 0.5821 0.1634
vn -0.7460 -0.5524 -0.3719
vn -0.9959 0.0321 -0.0841
vn 0.5064 -0.3702 -0.7788
vn 0.9981 0.0134 -0.0595
vn 0.2115 0.0286 -0.9770
vn 0.9982 -0.0383 -0.0457
vn 0.9915 0.0941 0.0901
vn 0.2700 0.0443 -0.9618
vn -0.3270 0.0333 -0.9444
vn -0.3477 -0.3604 -0.8656
vn 0.3017 -0.3631 -0.8815
vn 0.7028 0.0838 -0.7065
vn 0.8428 -0.1584 0.5144
vn 0.7174 -0.0661 0.6935
vn -0.6652 -0.0647 0.7438
vn -0.6664 -0.0003 0.7456
vn -0.7112 -0.0465 -0.7015
vn 0.6360 0.1354 -0.7597
vn -0.7054 0.1321 -0.6964
vn -0.7322 -0.0575 -0.6786
vn 0.7182 0.0059 0.6958
vn 0.6428 -0.0438 -0.7648
vn 0.6672 -0.0554 -0.7428
vn -0.7337 0.0134 -0.6794
vn 0.6687 0.0128 -0.7434
vn 0.6956 0.0158 -0.7182
vn 0.5543 0.6117 -0.5644
vn 0.7700 -0.0412 0.6368
vn 0.6127 0.6173 0.4934
vn -0.6701 -0.0469 0.7407
vn -0.5254 0.6330 0.5685
vn -0.5669 0.6320 -0.5285
vn -0.7281 0.0127 -0.6854
vn -0.7578 0.0883 -0.6465
vn -0.7999 -0.1531 0.5803
vn -0.6651 -0.0479 0.7452
vn -0.6658 -0.0000 0.7462
vn 0.7216 -0.0513 0.6904
vn 0.7226 0.0033 0.6912
vn -0.4677 0.4475 -0.7623
vn -0.9990 0.0013 0.0440
vn -0.4791 -0.4425 -0.7580
vn -0.4801 -0.4427 -0.7573
vn -0.9992 -0.0068 0.0393
vn -0.4499 -0.8929 0.0152
vn -0.4867 0.4509 -0.7482
vn -0.4343 0.9005 0.0211
vn -0.9988 -0.0079 0.0493
vn -0.0528 0.4932 0.8683
vn 0.3343 0.1523 0.9301
vn -0.1167 -0.5032 0.8563
vn -0.4012 -0.4585 0.7930
vn -0.3958 0.4476 0.8019
vn -0.4652 -0.0575 0.8833
vn -0.4449 -0.0623 0.8934
vn -0.0408 0.4593 0.8874
vn -0.5750 0.8175 0.0325
vn -0.9986 0.0413 0.0317
vt 0.757719 0.402344
vt 0.820219 0.332031
vt 0.839750 0.343750
vt 0.917875 0.328125
vt 0.839750 0.414063
vt 0.941312 0.398438
vt 0.988187 0.320313
vt 0.913969 0.214844
vt 0.984281 0.203125
vt 0.988187 0.132813
vt 0.960844 0.136719
vt 0.839750 0.035156
vt 0.956937 0.023438
vt 0.734281 0.140625
vt 0.835844 0.253906
vt 0.593656 0.375000
vt 0.660062 0.277344
vt 0.472562 0.289063
vt 0.488187 0.261719
vt 0.406156 0.164063
vt 0.468656 0.058594
vt 0.441312 0.015625
vt 0.671781 0.011719
vt 0.675687 0.437500
vt 0.562406 0.683594
vt 0.523344 0.679688
vt 0.484281 0.878906
vt 0.460844 0.679688
vt 0.445219 0.843750
vt 0.421781 0.917969
vt 0.511625 0.921875
vt 0.480375 0.968750
vt 0.413969 0.988281
vt 0.355375 0.964844
vt 0.335844 0.910156
vt 0.374906 0.855469
vt 0.945219 0.472656
vt 0.730375 0.488281
vt 0.886625 0.656250
vt 0.808500 0.660156
vt 0.695219 0.578125
vt 0.749906 0.656250
vt 0.773344 0.824219
vt 0.929594 0.671875
vt 0.820219 0.843750
vt 0.648344 0.945312
vt 0.628812 0.914062
vt 0.554594 0.933594
vt 0.601469 0.875000
vt 0.574125 0.835938
vt 0.710844 0.796875
vt 0.663969 0.785156
vt 0.843656 0.445313
vt 0.523344 0.375000
vt 0.347562 0.402344
vt 0.343656 0.183594
vt 0.613187 0.046875
vt 0.699125 0.144531
vt 0.632719 0.250000
vt 0.281156 0.050781
vt 0.746000 0.656250
vt 0.210844 0.027344
vt 0.097562 0.140625
vt 0.121000 0.023438
vt 0.007719 0.039063
vt 0.003812 0.144531
vt 0.128812 0.285156
vt 0.195219 0.136719
vt 0.234281 0.281250
vt 0.308500 0.921875
vt 0.175687 0.929688
vt 0.179594 0.980469
vt 0.042875 0.937500
vt 0.171781 0.929688
vt 0.027250 0.289063
s 0
usemtl models/alice/weapons/icewand_skin01.png
f 3/1/1 1/2/1 2/3/1
f 2/3/2 4/4/2 3/1/2
f 4/4/3 5/5/3 3/1/3
f 4/4/4 6/6/4 5/5/4
f 6/6/5 7/4/5 5/5/5
f 8/7/6 6/6/6 4/4/6
f 6/6/7 8/7/7 7/4/7
f 8/7/8 9/8/8 7/4/8
f 8/7/9 10/9/9 9/8/9
f 10/9/10 11/10/10 9/8/10
f 8/7/11 4/4/11 12/8/11
f 10/9/12 8/7/12 12/8/12
f 10/9/13 12/8/13 11/10/13
f 12/8/14 13/11/14 11/10/14
f 12/8/15 14/12/15 13/11/15
f 11/10/16 13/11/16 15/13/16
f 14/12/17 15/13/17 13/11/17
f 14/12/18 12/8/18 16/14/18
f 12/8/19 17/15/19 16/14/19
f 5/5/20 7/4/20 18/1/20
f 7/4/21 19/3/21 18/1/21
f 19/3/22 20/2/22 18/1/22
f 20/2/23 21/16/23 18/1/23
f 20/2/24 22/17/24 21/16/24
f 22/17/25 23/18/25 21/16/25
f 22/17/26 24/19/26 23/18/26
f 24/19/27 25/20/27 23/18/27
f 24/19/28 26/21/28 25/20/28
f 26/21/29 27/22/29 25/20/29
f 26/21/30 28/23/30 27/22/30
f 18/1/31 21/16/31 29/24/31
f 21/16/32 30/25/32 29/24/32
f 21/16/33 31/26/33 30/25/33
f 31/26/34 32/27/34 30/25/34
f 31/26/35 33/28/35 32/27/35
f 33/28/36 34/29/36 32/27/36
f 33/28/37 35/27/37 34/29/37
f 35/27/38 36/30/38 34/29/38
f 35/27/39 37/31/39 36/30/39
f 37/31/40 29/24/40 30/25/40
f 37/31/41 30/25/41 32/27/41
f 37/31/42 38/32/42 36/30/42
f 39/30/43 32/27/43 34/29/43
f 39/30/44 37/31/44 32/27/44
f 37/31/45 39/30/45 38/32/45
f 38/32/46 40/33/46 36/30/46
f 39/30/47 40/33/47 38/32/47
f 39/30/48 41/34/48 40/33/48
f 41/34/49 36/30/49 40/33/49
f 41/34/50 42/35/50 36/30/50
f 39/30/51 42/35/51 41/34/51
f 43/36/52 34/29/52 36/30/52
f 39/30/53 34/29/53 43/36/53
f 42/35/54 43/36/54 36/30/54
f 42/35/55 39/30/55 43/36/55
f 20/2/56 44/15/56 22/17/56
f 44/15/57 45/14/57 22/17/57
f 44/15/58 9/8/58 45/14/58
f 9/8/59 46/12/59 45/14/59
f 9/8/60 47/11/60 46/12/60
f 47/11/61 9/8/61 11/10/61
f 47/11/62 48/13/62 46/12/62
f 47/11/63 11/10/63 48/13/63
f 11/10/64 15/13/64 48/13/64
f 51/37/65 49/38/65 50/39/65
f 49/38/66 52/40/66 50/39/66
f 49/38/67 53/41/67 52/40/67
f 53/41/68 54/42/68 52/40/68
f 53/41/69 55/38/69 54/42/69
f 55/38/70 56/40/70 54/42/70
f 55/38/71 57/39/71 56/40/71
f 57/39/72 58/43/72 56/40/72
f 51/37/73 50/39/73 59/44/73
f 57/39/74 51/37/74 59/44/74
f 57/39/75 59/44/75 58/43/75
f 59/44/76 60/45/76 58/43/76
f 59/44/77 61/43/77 60/45/77
f 59/44/78 50/39/78 61/43/78
f 50/39/79 52/40/79 61/43/79
f 60/45/80 62/46/80 58/43/80
f 61/43/81 62/46/81 60/45/81
f 61/43/82 63/47/82 62/46/82
f 63/47/83 64/48/83 62/46/83
f 63/47/84 65/49/84 64/48/84
f 65/49/85 66/50/85 64/48/85
f 65/49/86 67/51/86 66/50/86
f 67/51/87 63/47/87 61/43/87
f 67/51/88 65/49/88 63/47/88
f 52/40/89 67/51/89 61/43/89
f 67/51/90 68/52/90 66/50/90
f 67/51/91 52/40/91 68/52/91
f 68/52/92 54/42/92 56/40/92
f 52/40/93 54/42/93 68/52/93
f 62/46/94 69/47/94 58/43/94
f 62/46/95 64/48/95 69/47/95
f 64/48/96 66/50/96 70/49/96
f 64/48/97 70/49/97 69/47/97
f 71/51/98 58/43/98 69/47/98
f 70/49/99 71/51/99 69/47/99
f 68/52/100 56/40/100 71/51/100
f 66/50/101 68/52/101 71/51/101
f 66/50/102 71/51/102 70/49/102
f 71/51/103 56/40/103 58/43/103
f 72/53/104 51/37/104 57/39/104
f 55/38/105 72/53/105 57/39/105
f 37/31/106 73/25/106 29/24/106
f 37/31/107 35/27/107 73/25/107
f 35/27/108 33/28/108 74/26/108
f 35/27/109 74/26/109 73/25/109
f 33/28/110 75/54/110 74/26/110
f 33/28/111 76/55/111 75/54/111
f 76/55/112 77/18/112 75/54/112
f 76/55/113 78/56/113 77/18/113
f 78/56/114 79/20/114 77/18/114
f 78/56/115 80/22/115 79/20/115
f 80/22/116 81/21/116 79/20/116
f 80/22/117 82/23/117 81/21/117
f 82/23/118 83/57/118 81/21/118
f 84/58/119 81/21/119 83/57/119
f 82/23/120 16/14/120 84/58/120
f 82/23/121 84/58/121 83/57/121
f 85/19/122 77/18/122 79/20/122
f 85/19/123 79/20/123 81/21/123
f 84/58/124 85/19/124 81/21/124
f 16/14/125 17/15/125 86/17/125
f 16/14/126 86/17/126 84/58/126
f 77/18/127 85/19/127 86/17/127
f 17/15/128 1/2/128 86/17/128
f 74/26/129 75/54/129 87/16/129
f 75/54/130 77/18/130 87/16/130
f 77/18/131 86/17/131 87/16/131
f 73/25/132 74/26/132 87/16/132
f 73/25/133 87/16/133 29/24/133
f 87/16/134 86/17/134 1/2/134
f 87/16/135 1/2/135 3/1/135
f 29/24/136 87/16/136 3/1/136
f 85/19/137 84/58/137 88/59/137
f 85/19/138 88/59/138 86/17/138
f 84/58/139 86/17/139 88/59/139
f 80/22/140 78/56/140 89/60/140
f 78/56/141 76/55/141 89/60/141
f 92/38/142 90/41/142 91/61/142
f 90/41/143 93/40/143 91/61/143
f 90/41/144 94/38/144 93/40/144
f 94/38/145 95/39/145 93/40/145
f 94/38/146 96/37/146 95/39/146
f 96/37/147 97/44/147 95/39/147
f 96/37/148 98/39/148 97/44/148
f 98/39/149 99/43/149 97/44/149
f 92/38/150 91/61/150 100/40/150
f 98/39/151 92/38/151 100/40/151
f 98/39/152 100/40/152 99/43/152
f 100/40/153 101/51/153 99/43/153
f 100/40/154 102/52/154 101/51/154
f 91/61/155 93/40/155 102/52/155
f 100/40/156 91/61/156 102/52/156
f 102/52/157 103/50/157 101/51/157
f 102/52/158 93/40/158 104/51/158
f 102/52/159 104/51/159 103/50/159
f 104/51/160 105/49/160 103/50/160
f 104/51/161 106/47/161 105/49/161
f 106/47/162 107/48/162 105/49/162
f 105/49/163 107/48/163 103/50/163
f 106/47/164 108/46/164 107/48/164
f 108/46/165 99/43/165 109/47/165
f 108/46/166 109/47/166 107/48/166
f 99/43/167 101/51/167 109/47/167
f 110/49/168 101/51/168 103/50/168
f 109/47/169 101/51/169 110/49/169
f 107/48/170 110/49/170 103/50/170
f 107/48/171 109/47/171 110/49/171
f 96/37/172 111/53/172 98/39/172
f 111/53/173 92/38/173 98/39/173
f 95/39/174 97/44/174 112/43/174
f 104/51/175 112/43/175 106/47/175
f 112/43/176 108/46/176 106/47/176
f 93/40/177 112/43/177 104/51/177
f 93/40/178 95/39/178 112/43/178
f 112/43/179 113/45/179 108/46/179
f 113/45/180 99/43/180 108/46/180
f 113/45/181 97/44/181 99/43/181
f 112/43/182 97/44/182 113/45/182
f 116/62/183 114/63/183 115/64/183
f 114/63/184 117/65/184 115/64/184
f 114/63/185 118/66/185 117/65/185
f 118/66/186 119/63/186 117/65/186
f 118/66/187 120/67/187 119/63/187
f 120/67/188 121/68/188 119/63/188
f 121/68/189 114/63/189 116/62/189
f 119/63/190 121/68/190 116/62/190
f 120/67/191 122/69/191 121/68/191
f 123/67/192 118/66/192 114/63/192
f 121/68/193 123/67/193 114/63/193
f 122/69/194 123/67/194 121/68/194
f 124/70/195 122/69/195 120/67/195
f 122/69/196 124/70/196 123/67/196
f 124/70/197 125/71/197 123/67/197
f 124/70/198 126/72/198 125/71/198
f 125/71/199 127/73/199 123/67/199
f 126/72/200 127/73/200 125/71/200
f 128/74/201 120/67/201 127/73/201
f 126/72/202 128/74/202 127/73/202
f 128/74/203 126/72/203 124/70/203
f 128/74/204 124/70/204 120/67/204
f 119/63/205 116/62/205 129/64/205
f 117/65/206 119/63/206 129/64/206
f 130/75/207 127/73/207 120/67/207
f 130/75/208 120/67/208 118/66/208
f 127/73/209 130/75/209 123/67/209
f 123/67/210 130/75/210 118/66/210
f 22/17/211 45/14/211 131/58/211
f 26/21/212 24/19/212 131/58/212
f 45/14/213 28/23/213 131/58/213
f 28/23/214 132/57/214 131/58/214
f 26/21/215 131/58/215 132/57/215
f 28/23/216 26/21/216 132/57/216
f 22/17/217 131/58/217 133/59/217
f 24/19/218 22/17/218 133/59/218
f 24/19/219 133/59/219 131/58/219
f 134/56/220 76/55/220 23/18/220
f 89/60/221 76/55/221 134/56/221
f 27/22/222 89/60/222 134/56/222
f 27/22/223 134/56/223 25/20/223
f 134/56/224 23/18/224 25/20/224
f 33/28/225 31/26/225 135/54/225
f 76/55/226 33/28/226 135/54/226
f 76/55/227 135/54/227 23/18/227
f 23/18/228 135/54/228 21/16/228
f 135/54/229 31/26/229 21/16/229
o 0001_icewand_notmoving1_material1
v -2.520908 50.624535 -0.590077
v -2.012769 47.047600 0.453090
v -2.097516 47.062248 -1.262866
v -2.445104 50.607742 1.323925
v -3.685441 58.927906 1.745040
v 0.071926 50.591492 2.702203
v -0.125128 59.068993 3.417445
v 3.406755 58.978531 1.410003
v 0.964803 73.107132 1.159240
v -1.313061 67.533684 2.623302
v 3.562734 58.997738 -1.018659
v 1.888068 70.243408 -0.389489
v 2.372262 50.630836 -0.804226
v -0.117914 50.657890 -1.615342
v 2.031343 47.068619 -1.441259
v 0.124077 46.827225 -1.843109
v -1.889132 45.556026 1.302991
v -0.849393 46.669624 2.345724
v -0.414980 46.686230 3.438010
v 0.756876 46.689781 3.346730
v 1.109393 46.654099 2.251554
v 2.411600 50.647739 1.094934
v 2.110222 47.068218 0.272121
v 2.144140 45.574116 1.122874
v -0.382969 58.961811 -2.558165
v -3.682489 58.969662 -0.684123
v -0.135960 71.375313 -1.268687
v -2.520908 50.624535 -0.590077
v -2.097516 47.062248 -1.262866
v -3.682489 58.969662 -0.684123
v -1.363420 72.012955 0.316183
v 2.379496 68.096161 -2.014067
v 0.009142 62.555191 0.408948
v 0.964803 73.107132 1.159240
v -0.125128 59.068993 3.417445
v 3.406755 58.978531 1.410003
v 1.888068 70.243408 -0.389489
v 3.562734 58.997738 -1.018659
v 2.379496 68.096161 -2.014067
v -0.382969 58.961811 -2.558165
v -0.135960 71.375313 -1.268687
v -3.682489 58.969662 -0.684123
v -1.363420 72.012955 0.316183
v -3.685441 58.927906 1.745040
v -1.313061 67.533684 2.623302
vn 0.9908 0.1268 -0.0478
vn 0.9908 0.1296 -0.0381
vn 0.9881 0.1492 -0.0378
vn 0.4777 0.1153 -0.8709
vn 0.4208 0.0860 -0.9031
vn -0.4920 0.0618 -0.8684
vn -0.4936 -0.1006 -0.8639
vn 0.4258 -0.0251 -0.9044
vn -0.9875 -0.1435 -0.0646
vn -0.9883 0.1390 -0.0624
vn -0.3083 0.0682 0.9488
vn -0.3081 -0.1388 0.9412
vn -0.1971 -0.0706 0.9778
vn 0.9929 0.1091 0.0470
vn 0.4799 -0.0330 -0.8767
vn 0.6642 0.0762 -0.7437
vn 0.9146 -0.1821 -0.3610
vn -0.0759 -0.1755 -0.9816
vn -0.9322 -0.2121 -0.2932
vn -0.9928 0.1179 0.0195
vn -0.5645 -0.0545 -0.8236
vn -0.5651 0.0985 -0.8191
vn -0.9951 0.0870 0.0458
vn -0.9966 0.0793 0.0199
vn -0.9898 0.0529 0.1324
vn -0.7202 0.0341 -0.6929
vn -0.3626 0.0937 0.9272
vn 0.4909 0.1137 0.8638
vn 0.4912 -0.0997 0.8653
vn 0.3909 0.0648 0.9182
vn 0.2483 -0.0419 0.9678
vn 0.3908 -0.1258 0.9118
vn 0.9904 0.1379 0.0036
vn 0.9846 -0.1749 -0.0018
vn -0.3634 0.0545 0.9300
vn 0.9947 -0.0861 -0.0554
vn -0.3194 -0.0384 0.9468
vn 0.1444 -0.1371 -0.9800
vn 0.3764 0.0042 0.9264
vn -0.5003 -0.1582 -0.8512
vn 0.9267 -0.2942 0.2338
vn -0.9924 0.0070 0.1227
vn 0.4221 -0.1627 -0.8918
vn -0.2586 -0.0281 0.9656
vn -0.2940 -0.0520 -0.9544
vn 0.5209 -0.2276 0.8227
vn -0.9621 -0.1560 -0.2237
vt 0.980375 0.050781
vt 0.968656 0.171875
vt 0.878812 0.050781
vt 0.831937 0.136719
vt 0.831937 0.457031
vt 0.648344 0.140625
vt 0.660062 0.453125
vt 0.476469 0.414063
vt 0.511625 0.941406
vt 0.734281 0.734375
vt 0.371000 0.843750
vt 0.378812 0.367188
vt 0.359281 0.171875
vt 0.195219 0.171875
vt 0.324125 0.050781
vt 0.210844 0.042969
vt 0.820219 0.019531
vt 0.714750 0.035156
vt 0.675687 0.039063
vt 0.621000 0.039063
vt 0.578031 0.035156
vt 0.468656 0.171875
vt 0.421781 0.050781
vt 0.476469 0.027344
vt 0.179594 0.406250
vt 0.011625 0.457031
vt 0.050687 0.906250
vt 0.015531 0.171875
vt 0.074125 0.050781
vt 0.956937 0.457031
vt 0.949125 0.902344
vt 0.316312 0.769531
vt 0.097562 0.898438
vt 0.288969 0.910156
vt 0.195219 0.539063
s 0
usemtl models/alice/weapons/icewand_skin02.png
f 138/76/230 136/77/230 137/78/230
f 136/77/231 139/79/231 137/78/231
f 136/77/232 140/80/232 139/79/232
f 140/80/233 141/81/233 139/79/233
f 140/80/234 142/82/234 141/81/234
f 142/82/235 143/83/235 141/81/235
f 142/82/236 144/84/236 143/83/236
f 140/80/237 145/85/237 142/82/237
f 147/86/238 146/87/238 143/83/238
f 146/87/239 148/88/239 143/83/239
f 146/87/240 149/89/240 148/88/240
f 149/89/241 150/90/241 148/88/241
f 149/89/242 151/91/242 150/90/242
f 137/78/243 139/79/243 152/92/243
f 139/79/244 141/81/244 153/93/244
f 139/79/245 153/93/245 152/92/245
f 141/81/246 154/94/246 153/93/246
f 141/81/247 155/95/247 154/94/247
f 155/95/248 141/81/248 156/96/248
f 143/83/249 148/88/249 157/97/249
f 141/81/250 157/97/250 156/96/250
f 141/81/251 143/83/251 157/97/251
f 150/90/252 158/98/252 148/88/252
f 158/98/253 157/97/253 148/88/253
f 158/98/254 159/99/254 157/97/254
f 159/99/255 156/96/255 157/97/255
f 149/89/256 146/87/256 160/100/256
f 161/101/257 149/89/257 160/100/257
f 162/102/258 161/101/258 160/100/258
f 161/101/259 163/103/259 149/89/259
f 164/104/260 151/91/260 149/89/260
f 163/103/261 164/104/261 149/89/261
f 136/77/262 165/105/262 140/80/262
f 165/105/263 166/106/263 140/80/263
f 146/87/264 167/107/264 160/100/264
f 170/108/265 168/109/265 169/110/265
f 168/109/266 171/108/266 169/110/266
f 168/109/267 172/110/267 171/108/267
f 172/110/268 168/109/268 173/108/268
f 168/109/269 174/110/269 173/108/269
f 168/109/270 175/108/270 174/110/270
f 175/108/271 168/109/271 176/110/271
f 168/109/272 177/108/272 176/110/272
f 168/109/273 178/110/273 177/108/273
f 178/110/274 168/109/274 179/108/274
f 168/109/275 180/110/275 179/108/275
f 168/109/276 170/108/276 180/110/276
