# Blender 4.1.1
# www.blender.org
o card
v -0.658596 22.676453 -3.064773
v 0.636020 22.673470 -3.065720
v -0.654153 22.675144 3.064036
v 0.640468 22.672173 3.063102
v -0.640472 30.556343 -3.063111
v 0.654154 30.553373 -3.064036
v -0.636023 30.555042 3.065711
v 0.658595 30.552067 3.064767
vn -0.0023 -1.0000 -0.0002
vn 0.0007 -0.0002 1.0000
vn 0.0023 1.0000 0.0002
vn -0.0007 0.0002 -1.0000
vn -1.0000 0.0023 0.0007
vn 1.0000 -0.0023 -0.0007
vt 0.891697 0.019095
vt 0.998425 0.019095
vt 0.998425 0.999948
vt 0.891697 0.999948
vt 0.891732 0.017471
vt 0.998425 0.017471
vt 0.998425 0.980561
vt 0.891732 0.980561
vt 0.891732 0.016339
vt 0.999803 0.016339
vt 0.999803 0.984080
vt 0.891732 0.984080
vt 0.893405 0.010535
vt 0.997945 0.010535
vt 0.997945 0.997539
vt 0.893405 0.997539
vt 0.449653 0.998047
vt 0.449653 0.005859
vt 0.887153 0.005859
vt 0.887153 0.998047
vt 0.002625 1.000360
vt 0.002625 0.002774
vt 0.442896 0.002774
vt 0.442896 1.000360
s 0
f 1/1/1 2/2/1 4/3/1 3/4/1
f 3/5/2 4/6/2 8/7/2 7/8/2
f 7/9/3 8/10/3 6/11/3 5/12/3
f 5/13/4 6/14/4 2/15/4 1/16/4
f 3/17/5 7/18/5 5/19/5 1/20/5
f 8/21/6 4/22/6 2/23/6 6/24/6
o card.001
v 0.683809 22.646927 -2.767915
v 0.796925 22.643820 -2.768306
v 0.684197 23.754112 3.260057
v 0.797314 23.751019 3.259676
v 0.685393 30.397163 -4.191457
v 0.798510 30.394077 -4.191829
v 0.685782 31.504360 1.836526
v 0.798898 31.501263 1.836136
vn -0.0263 -0.9832 0.1806
vn 0.0083 0.1806 0.9835
vn 0.0263 0.9832 -0.1806
vn -0.0083 -0.1806 -0.9835
vn -1.0000 0.0002 -0.0000
vn 1.0000 -0.0002 -0.0000
vt 0.891697 0.019095
vt 0.998425 0.019095
vt 0.998425 0.999948
vt 0.891697 0.999948
vt 0.645361 0.098075
vt 0.734379 0.098075
vt 0.734379 0.901620
vt 0.645361 0.901620
vt 0.891732 0.016339
vt 0.999803 0.016339
vt 0.999803 0.984080
vt 0.891732 0.984080
vt 0.646757 0.092288
vt 0.733979 0.092288
vt 0.733979 0.915786
vt 0.646757 0.915786
vt 0.449653 0.998047
vt 0.449653 0.005859
vt 0.887153 0.005859
vt 0.887153 0.998047
vt 0.002625 1.000360
vt 0.002625 0.002774
vt 0.442896 0.002774
vt 0.442896 1.000360
s 0
f 9/25/7 10/26/7 12/27/7 11/28/7
f 11/29/8 12/30/8 16/31/8 15/32/8
f 15/33/9 16/34/9 14/35/9 13/36/9
f 13/37/10 14/38/10 10/39/10 9/40/10
f 11/41/11 15/42/11 13/43/11 9/44/11
f 16/45/12 12/46/12 10/47/12 14/48/12
o card.002
v 0.846934 22.682999 -2.453893
v 0.960050 22.679886 -2.453574
v 0.847322 25.120440 3.169379
v 0.960439 25.117340 3.169705
v 0.848518 29.912905 -5.587759
v 0.961634 29.909813 -5.587426
v 0.848906 32.350357 0.035521
v 0.962022 32.347252 0.035839
vn -0.0263 -0.9172 0.3976
vn 0.0083 0.3977 0.9175
vn 0.0263 0.9172 -0.3976
vn -0.0083 -0.3977 -0.9175
vn -1.0000 0.0002 -0.0000
vn 1.0000 -0.0002 -0.0000
vt 0.891697 0.019095
vt 0.998425 0.019095
vt 0.998425 0.999948
vt 0.891697 0.999948
vt 0.645361 0.098075
vt 0.734379 0.098075
vt 0.734379 0.901620
vt 0.645361 0.901620
vt 0.891732 0.016339
vt 0.999803 0.016339
vt 0.999803 0.984080
vt 0.891732 0.984080
vt 0.646757 0.092288
vt 0.733979 0.092288
vt 0.733979 0.915786
vt 0.646757 0.915786
vt 0.449653 0.998047
vt 0.449653 0.005859
vt 0.887153 0.005859
vt 0.887153 0.998047
vt 0.002625 1.000360
vt 0.002625 0.002774
vt 0.442896 0.002774
vt 0.442896 1.000360
s 0
f 17/49/13 18/50/13 20/51/13 19/52/13
f 19/53/14 20/54/14 24/55/14 23/56/14
f 23/57/15 24/58/15 22/59/15 21/60/15
f 21/61/16 22/62/16 18/63/16 17/64/16
f 19/65/17 23/66/17 21/67/17 17/68/17
f 24/69/18 20/70/18 18/71/18 22/72/18
