# Blender 4.1.1
# www.blender.org
o VorpalBlade2_DM.png
v -7.406250 6.875000 0.421875
v -7.406250 6.859375 0.453125
v 8.812500 3.562500 0.296875
v -10.968750 5.796875 -0.328125
v -10.984375 5.656250 0.156250
v -15.687500 6.828125 0.156250
v -19.609375 7.312500 -0.500000
v -19.656250 7.093750 0.140625
v -20.546875 7.843750 0.171875
v -18.812500 6.859375 0.125000
v -18.640625 7.109375 -0.515625
v -17.031250 6.953125 0.156250
v -16.453125 7.109375 -0.328125
v -19.234375 8.015625 -0.968750
v -17.265625 8.000000 -0.687500
v -17.453125 8.906250 -0.671875
v -19.015625 9.031250 -0.921875
v -18.640625 9.828125 -0.328125
v -18.828125 9.984375 0.281250
v -17.828125 9.843750 0.281250
v -20.156250 9.796875 0.265625
v -20.171875 9.687500 -0.281250
v -20.265625 9.265625 -0.656250
v -20.406250 8.578125 -0.687500
v -20.531250 7.984375 -0.343750
v -20.562500 9.453125 0.250000
v -20.625000 9.281250 -0.187500
v -20.750000 8.609375 -0.187500
v -20.796875 8.359375 0.203125
v -21.093750 8.546875 0.218750
v -20.953125 9.281250 -0.062500
v -21.062500 8.734375 -0.093750
v -21.171875 9.046875 0.250000
v -20.921875 9.421875 0.250000
v -7.406250 6.875000 0.421875
v -7.390625 6.890625 0.015625
v -7.812500 7.000000 -0.125000
v -7.812500 6.968750 0.546875
v -9.187500 7.093750 0.531250
v -9.187500 7.125000 -0.125000
v -20.953125 9.234375 0.562500
v -21.062500 8.718750 0.531250
v -20.750000 8.578125 0.609375
v -20.921875 9.421875 0.250000
v -19.234375 7.921875 1.328125
v -19.625000 7.250000 0.828125
v -18.734375 7.046875 0.812500
v -20.531250 7.937500 0.718750
v -20.406250 8.515625 1.093750
v -20.625000 9.218750 0.687500
v -20.562500 9.453125 0.250000
v -20.187500 9.625000 0.812500
v -17.125000 7.890625 1.015625
v -17.281250 8.750000 1.109375
v -16.343750 7.062500 0.640625
v -10.703125 7.078125 1.046875
v -10.593750 7.562500 0.750000
v -10.953125 5.859375 0.796875
v -10.984375 5.656250 0.156250
v -15.687500 6.828125 0.156250
v -17.031250 6.953125 0.156250
v -18.312500 6.843750 0.125000
v -19.000000 6.906250 0.140625
v -19.656250 7.093750 0.140625
v -10.703125 7.078125 1.078125
v -9.921875 6.890625 1.062500
v -10.078125 7.609375 0.796875
v -9.828125 7.375000 0.750000
v -9.921875 7.750000 0.265625
v -10.234375 7.828125 0.265625
v -10.562500 7.750000 0.250000
v -10.593750 7.562500 0.750000
v -9.796875 7.546875 0.265625
v -10.843750 6.375000 1.031250
v -10.062500 6.218750 1.015625
v -10.421875 5.515625 0.687500
v -10.968750 5.750000 0.656250
v -11.000000 5.640625 0.156250
v -10.406250 5.406250 0.156250
v -10.187500 5.609375 0.656250
v -10.218750 5.515625 0.156250
v -20.281250 9.156250 1.140625
v -19.046875 8.906250 1.390625
v -18.687500 9.750000 0.875000
v -18.828125 9.984375 0.281250
v -17.765625 9.828125 0.265625
v -10.562500 7.750000 0.250000
v 17.281250 1.796875 0.062500
v 8.812500 3.593750 -0.234375
v 8.812500 3.593750 -0.156250
v -7.390625 6.890625 0.015625
v -7.406250 6.875000 -0.031250
v 17.281250 1.796875 0.062500
v 8.812500 3.578125 0.234375
v -7.828125 6.953125 0.593750
v -7.406250 6.859375 0.453125
v -7.406250 6.875000 0.421875
v -7.812500 6.968750 0.546875
v -9.187500 7.078125 0.578125
v -9.187500 7.093750 0.531250
v -8.296875 5.671875 -0.125000
v -8.140625 3.812500 -0.125000
v -8.406250 4.968750 -0.140625
v -8.671875 6.234375 -0.234375
v -8.796875 5.390625 -0.171875
v -9.468750 5.765625 -0.234375
v -9.187500 7.125000 -0.156250
v -8.265625 6.109375 -0.062500
v -8.046875 6.515625 -0.046875
v -7.812500 6.984375 -0.171875
v -7.406250 6.875000 -0.031250
v -9.187500 7.125000 -0.156250
v -9.187500 7.125000 -0.125000
v -7.812500 7.000000 -0.125000
v -7.812500 6.984375 -0.171875
v -7.406250 6.875000 -0.031250
v -7.390625 6.890625 0.015625
v -8.062500 6.484375 0.484375
v -7.406250 6.859375 0.453125
v -7.828125 6.953125 0.593750
v -8.281250 6.093750 0.453125
v -8.687500 6.140625 0.625000
v -9.187500 7.078125 0.578125
v -9.468750 5.718750 0.562500
v -8.796875 5.359375 0.484375
v -8.406250 4.953125 0.421875
v -8.296875 5.656250 0.468750
v -8.140625 3.796875 0.296875
v -10.187500 5.656250 -0.312500
v -10.218750 5.515625 0.156250
v -10.453125 5.406250 0.156250
v -10.421875 5.562500 -0.343750
v -10.062500 6.265625 -0.640625
v -9.921875 6.984375 -0.609375
v -10.015625 7.656250 -0.265625
v -9.828125 7.421875 -0.250000
v -9.796875 7.546875 0.265625
v -9.921875 7.750000 0.265625
v -10.687500 7.187500 -0.625000
v -10.843750 6.437500 -0.671875
v -10.593750 7.625000 -0.250000
v -10.968750 5.796875 -0.328125
v -10.984375 5.656250 0.156250
v -10.234375 7.828125 0.265625
v -10.562500 7.750000 0.250000
v -3.640625 0.953125 0.078125
v -8.593750 1.625000 -0.015625
v -8.140625 3.812500 -0.125000
v -7.406250 6.875000 -0.031250
v 8.812500 3.593750 -0.234375
v -8.312500 5.656250 -0.078125
v -8.046875 6.515625 -0.046875
v -8.265625 6.109375 -0.062500
v -7.390625 6.890625 0.015625
v -7.406250 6.875000 0.421875
v 8.812500 3.578125 0.234375
v 8.812500 3.593750 -0.156250
v 17.281250 1.796875 0.062500
v -10.187500 5.609375 0.656250
v -10.218750 5.515625 0.156250
v -9.968750 5.093750 0.140625
v -9.937500 5.234375 0.812500
v -10.078125 6.203125 1.000000
v -9.765625 6.031250 1.281250
v -9.937500 6.890625 1.046875
v -9.578125 6.968750 1.343750
v -9.140625 6.046875 0.953125
v -9.250000 5.531250 0.625000
v -9.281250 5.437500 0.156250
v -9.828125 7.375000 0.750000
v -9.453125 7.609375 0.953125
v -9.796875 7.546875 0.265625
v -9.406250 7.859375 0.281250
v -8.906250 7.250000 0.250000
v -8.937500 7.078125 0.718750
v -9.031250 6.656250 0.984375
v 8.984375 0.343750 0.031250
v 14.671875 1.140625 -0.078125
v 8.812500 3.562500 0.296875
v 3.218750 0.296875 -0.125000
v -7.406250 6.859375 0.453125
v -8.062500 6.484375 0.484375
v -8.281250 6.093750 0.453125
v -8.312500 5.640625 0.421875
v -8.140625 3.796875 0.296875
v -9.015625 6.750000 -0.546875
v -8.937500 7.140625 -0.218750
v -8.906250 7.250000 0.250000
v -9.140625 6.109375 -0.578125
v -9.250000 5.562500 -0.281250
v -9.281250 5.437500 0.156250
v -8.937500 7.078125 0.718750
v -9.031250 6.656250 0.984375
v -9.140625 6.046875 0.953125
v -9.250000 5.531250 0.625000
v -9.468750 5.718750 0.562500
v -9.468750 5.765625 -0.234375
v -8.515625 5.156250 -0.156250
v -8.468750 5.062500 0.437500
v -8.140625 3.812500 -0.125000
v -8.140625 3.796875 0.296875
v -8.593750 1.625000 -0.015625
v -9.828125 7.421875 -0.250000
v -9.796875 7.546875 0.265625
v -9.406250 7.859375 0.281250
v -9.437500 7.687500 -0.406250
v -9.921875 6.984375 -0.593750
v -9.562500 7.093750 -0.875000
v -10.062500 6.265625 -0.625000
v -9.765625 6.125000 -0.937500
v -9.015625 6.750000 -0.546875
v -8.937500 7.140625 -0.218750
v -8.906250 7.250000 0.250000
v -10.187500 5.656250 -0.312500
v -9.921875 5.296875 -0.500000
v -10.218750 5.515625 0.156250
v -9.968750 5.093750 0.140625
v -9.281250 5.437500 0.156250
v -9.250000 5.562500 -0.281250
v -9.140625 6.109375 -0.578125
v -10.843750 6.437500 -0.640625
v -10.687500 7.171875 -0.593750
v -10.593750 7.625000 -0.250000
v -10.562500 7.750000 0.250000
v -15.218750 9.062500 0.250000
v 17.281250 1.781250 0.062500
vn 0.1830 0.8793 0.4397
vn -0.2322 -0.9321 -0.2781
vn -0.6218 -0.7261 -0.2934
vn -0.2584 -0.9083 -0.3290
vn -0.1942 -0.8951 -0.4014
vn 0.0554 -0.9351 -0.3501
vn 0.0241 -0.9595 -0.2808
vn -0.0850 -0.9141 -0.3964
vn -0.2284 -0.9542 -0.1931
vn -0.1198 -0.5057 -0.8544
vn 0.1282 -0.3751 -0.9181
vn 0.0812 -0.3083 -0.9478
vn 0.1416 0.0464 -0.9888
vn 0.1589 0.0113 -0.9872
vn 0.1751 0.5340 -0.8272
vn 0.1363 0.9689 -0.2065
vn -0.1308 0.9499 -0.2838
vn -0.0956 0.9766 -0.1926
vn -0.0808 0.6197 -0.7807
vn -0.0327 0.6681 -0.7434
vn -0.1916 0.0864 -0.9777
vn -0.1942 0.0841 -0.9774
vn -0.3904 -0.3983 -0.8300
vn -0.3996 -0.3514 -0.8467
vn -0.6372 0.7591 -0.1336
vn -0.6770 0.7128 -0.1833
vn -0.6320 0.5886 -0.5041
vn -0.7767 0.1862 -0.6017
vn -0.8102 0.1507 -0.5664
vn -0.8192 -0.1482 -0.5540
vn -0.9269 -0.2557 -0.2749
vn -0.8939 -0.4248 -0.1429
vn -0.5984 -0.7682 -0.2276
vn -0.4773 -0.7130 -0.5136
vn -0.3552 0.0661 -0.9324
vn -0.2472 0.1045 -0.9633
vn -0.4466 -0.7468 -0.4928
vn -0.9732 -0.1407 -0.1817
vn -0.8667 0.1995 -0.4571
vn -0.8208 0.5472 -0.1642
vn -0.1498 0.9072 -0.3932
vn -0.0810 0.9316 -0.3544
vn 0.2362 0.9706 0.0464
vn 0.2378 0.9703 0.0451
vn 0.0899 0.9949 0.0463
vn 0.0904 0.9948 0.0474
vn -0.2454 -0.0067 0.9694
vn -0.4574 -0.7591 0.4632
vn -0.9688 -0.1630 0.1866
vn -0.8499 0.1497 0.5052
vn -0.8073 0.5382 0.2422
vn -0.1111 -0.5509 0.8271
vn -0.3956 -0.3891 0.8319
vn -0.3859 -0.4419 0.8099
vn -0.8127 -0.1831 0.5531
vn -0.8072 0.0863 0.5840
vn -0.3575 -0.0440 0.9329
vn -0.1489 0.8544 0.4978
vn -0.0768 0.8834 0.4623
vn -0.6959 0.6697 0.2593
vn 0.1449 -0.0812 0.9861
vn 0.1243 -0.4501 0.8843
vn 0.0693 -0.3565 0.9317
vn 0.1341 0.4956 0.8581
vn -0.0190 -0.1118 0.9935
vn -0.0294 -0.1951 0.9803
vn -0.1394 -0.5146 0.8460
vn -0.2159 -0.9277 0.3047
vn -0.2394 -0.9607 0.1405
vn -0.0873 -0.9379 0.3356
vn 0.0203 -0.9810 0.1928
vn 0.0727 -0.9435 0.3233
vn -0.0827 -0.9684 0.2354
vn -0.2624 -0.9184 0.2960
vn -0.2129 -0.9507 0.2257
vn -0.6271 -0.7530 0.1996
vn -0.6090 -0.7787 0.1509
vn -0.8928 -0.4390 0.1008
vn -0.9277 -0.2734 0.2542
vn -0.4560 -0.7606 0.4622
vn 0.1061 0.3649 0.9250
vn 0.5121 0.3935 0.7635
vn 0.6718 0.6430 0.3678
vn 0.2304 0.9218 0.3118
vn -0.2286 0.8747 0.4274
vn -0.1159 0.9324 0.3424
vn -0.1258 0.5757 0.8079
vn 0.8280 0.5095 0.2342
vn 0.0038 -0.0673 0.9977
vn 0.0058 -0.0708 0.9975
vn -0.0609 -0.3963 0.9161
vn -0.2466 -0.4619 0.8520
vn -0.3949 -0.8921 0.2198
vn -0.3613 -0.9153 0.1778
vn 0.3866 -0.9010 0.1969
vn 0.3166 -0.5292 0.7872
vn 0.4996 -0.8565 0.1294
vn -0.0475 0.5792 0.8138
vn -0.0802 0.5444 0.8350
vn -0.6439 0.5210 0.5603
vn -0.7847 0.1085 0.6103
vn -0.2108 -0.0304 0.9771
vn -0.2030 -0.0235 0.9789
vn 0.1488 -0.0909 0.9847
vn 0.1792 0.4563 0.8716
vn -0.6376 0.7446 0.1976
vn -0.0915 0.9515 0.2938
vn -0.1332 0.9107 0.3910
vn 0.1419 0.9318 0.3342
vn 0.2444 0.8437 0.4780
vn 0.2491 0.9016 0.3537
vn 0.1167 0.3792 0.9179
vn 0.2076 0.9782 -0.0000
vn 0.1994 0.9799 -0.0000
vn 0.1803 0.9135 -0.3646
vn 0.2046 0.9496 0.2374
vn 0.1961 0.9513 0.2378
vn 0.3285 0.8448 0.4224
vn 0.3200 0.8616 0.3939
vn 0.0822 0.9369 0.3397
vn 0.0824 0.9455 0.3152
vn 0.0924 0.0078 -0.9957
vn 0.2548 -0.0181 -0.9668
vn -0.0000 -0.0739 -0.9973
vn 0.0475 -0.0808 -0.9956
vn -0.0384 0.0652 -0.9971
vn 0.4136 0.0997 -0.9050
vn 0.3456 -0.1505 -0.9262
vn 0.4308 -0.4273 -0.7949
vn 0.2199 -0.3525 -0.9096
vn -0.0025 0.0859 -0.9963
vn 0.0905 0.9959 -0.0000
vn 0.0930 0.9446 -0.3149
vn 0.3428 0.8912 -0.2971
vn 0.3526 0.8462 -0.3996
vn 0.2319 -0.3295 0.9152
vn 0.3491 -0.2674 0.8981
vn 0.4026 -0.3941 0.8262
vn -0.0072 0.0461 0.9989
vn -0.0828 0.0057 0.9966
vn 0.0183 -0.1796 0.9836
vn -0.0234 -0.1739 0.9845
vn 0.2557 -0.1039 0.9612
vn 0.1066 -0.0826 0.9909
vn 0.3914 0.0189 0.9200
vn 0.4109 -0.8804 -0.2367
vn 0.3882 -0.8863 -0.2527
vn 0.3077 -0.4993 -0.8100
vn 0.5946 0.4304 -0.6791
vn 0.7724 0.6050 -0.1935
vn 0.8276 0.5093 -0.2359
vn 0.1416 0.4665 -0.8731
vn 0.0350 0.0551 -0.9979
vn 0.0474 0.0341 -0.9983
vn -0.0441 -0.3694 -0.9282
vn -0.0558 0.6566 -0.7521
vn -0.2095 -0.4303 -0.8781
vn -0.3859 -0.8825 -0.2687
vn -0.4068 -0.8644 -0.2955
vn 0.2372 0.9487 -0.2093
vn -0.0598 0.9423 -0.3295
vn -0.2156 0.9504 -0.2241
vn 0.0118 -0.0524 -0.9986
vn -0.0186 -0.0303 -0.9994
vn 0.0560 0.0171 -0.9983
vn 0.0156 0.0269 -0.9995
vn 0.0048 0.0348 -0.9994
vn 0.0091 0.0335 -0.9994
vn 0.1995 0.9788 0.0453
vn 0.1996 0.9791 0.0392
vn 0.2064 0.9777 0.0391
vn -0.8484 -0.5082 0.1483
vn -0.8501 -0.5061 0.1455
vn -0.7399 -0.2298 0.6323
vn -0.7180 -0.2313 0.6565
vn -0.6424 0.0794 0.7623
vn -0.6450 0.0783 0.7602
vn 0.4054 -0.5269 0.7470
vn 0.4319 -0.5476 0.7166
vn 0.4287 -0.8881 0.1659
vn 0.4396 -0.8859 0.1479
vn -0.6112 0.5093 0.6058
vn -0.6316 0.4897 0.6010
vn -0.6028 0.7634 0.2320
vn -0.6126 0.7538 0.2378
vn 0.7499 0.6012 0.2760
vn 0.7477 0.6058 0.2720
vn 0.6373 0.3067 0.7069
vn 0.6383 0.3035 0.7074
vn 0.4799 -0.1536 0.8638
vn 0.4635 -0.1282 0.8768
vn 0.0305 -0.0806 0.9963
vn -0.0123 -0.1074 0.9941
vn -0.0224 -0.0672 0.9975
vn 0.1071 -0.1050 0.9887
vn 0.0502 -0.0629 0.9968
vn 0.0142 -0.0543 0.9984
vn -0.0370 -0.1347 0.9902
vn 0.9840 -0.1762 -0.0245
vn 0.9815 -0.1908 -0.0150
vn 0.9801 -0.1983 -0.0042
vn 0.9791 -0.2032 0.0119
vn 0.9735 -0.2281 -0.0188
vn 0.9838 -0.1778 0.0237
vn 0.9793 -0.2016 -0.0186
vn 0.9813 -0.1908 -0.0273
vn -0.5351 -0.8433 -0.0496
vn -0.5542 -0.8279 -0.0870
vn -0.9629 -0.2679 0.0337
vn -0.9682 -0.2500 -0.0093
vn -0.9791 0.2032 0.0075
vn -0.6139 0.7749 -0.1506
vn -0.5995 0.7825 -0.1684
vn -0.6079 0.5670 -0.5558
vn -0.6077 0.5670 -0.5561
vn -0.6379 0.1576 -0.7538
vn -0.6689 0.1867 -0.7195
vn 0.6411 0.3878 -0.6622
vn 0.6686 0.3953 -0.6298
vn 0.7562 0.6259 -0.1909
vn 0.7530 0.6279 -0.1967
vn -0.7517 -0.1723 -0.6366
vn -0.7336 -0.2040 -0.6482
vn -0.8353 -0.5087 -0.2083
vn -0.8432 -0.4916 -0.2176
vn 0.4383 -0.8655 -0.2424
vn 0.4200 -0.8801 -0.2214
vn 0.4379 -0.4832 -0.7582
vn 0.4234 -0.4962 -0.7580
vn 0.4970 -0.0483 -0.8664
vn 0.4891 -0.0530 -0.8706
vn -0.1006 -0.4203 -0.9018
vn -0.1035 -0.4519 -0.8860
vn 0.0217 0.0591 -0.9980
vn 0.0169 0.0207 -0.9996
vn 0.1569 0.5761 -0.8022
vn 0.1468 0.5060 -0.8499
vn 0.2580 0.9334 -0.2495
vn 0.2575 0.9137 -0.3144
vn 0.2621 0.8903 -0.3723
vn 0.0437 0.0409 -0.9982
vn -0.0077 -0.0819 -0.9966
vn 0.0277 -0.0800 -0.9964
vn -0.0282 0.0147 -0.9995
vn -0.0098 -0.1761 0.9843
vn -0.0263 -0.0836 0.9962
vn 0.0250 -0.0474 0.9986
vt 0.995605 0.473145
vt 0.995605 0.472656
vt 0.325928 0.474609
vt 0.074951 0.815308
vt 0.074768 0.873779
vt 0.262451 0.878540
vt 0.433105 0.858765
vt 0.445801 0.919250
vt 0.498779 0.848022
vt 0.402579 0.929865
vt 0.392610 0.865476
vt 0.319824 0.911133
vt 0.300754 0.841906
vt 0.418457 0.782227
vt 0.340356 0.790830
vt 0.357526 0.700825
vt 0.418945 0.704590
vt 0.416295 0.626814
vt 0.438232 0.555908
vt 0.387695 0.541992
vt 0.497559 0.618896
vt 0.477783 0.669189
vt 0.471191 0.697754
vt 0.468994 0.751465
vt 0.478271 0.804565
vt 0.508301 0.649170
vt 0.492227 0.696819
vt 0.493408 0.763062
vt 0.509277 0.815552
vt 0.519531 0.783081
vt 0.505371 0.706299
vt 0.505371 0.756226
vt 0.525879 0.729492
vt 0.519531 0.679443
vt 0.835449 0.554443
vt 0.835938 0.523682
vt 0.853027 0.498047
vt 0.853516 0.579102
vt 0.898438 0.565430
vt 0.898926 0.512695
vt 0.395845 0.864947
vt 0.492232 0.696991
vt 0.334336 0.789391
vt 0.349402 0.701257
vt 0.295510 0.838555
vt 0.075256 0.695801
vt 0.075317 0.626953
vt 0.074979 0.802358
vt 0.378174 0.935791
vt 0.412109 0.927551
vt 0.075208 0.695761
vt 0.043225 0.689984
vt 0.057110 0.620558
vt 0.043457 0.622803
vt 0.052460 0.562744
vt 0.065002 0.566650
vt 0.075439 0.564453
vt 0.043579 0.565674
vt 0.075049 0.758774
vt 0.043141 0.752674
vt 0.053680 0.817537
vt 0.074758 0.873778
vt 0.051819 0.876587
vt 0.043091 0.813477
vt 0.042969 0.874146
vt 0.417997 0.627750
vt 0.385042 0.542424
vt 0.002222 0.443350
vt 0.325928 0.433105
vt 0.325928 0.439453
vt 0.995605 0.437500
vt 0.995605 0.433105
vt 0.002222 0.443359
vt 0.325928 0.470703
vt 0.854004 0.583740
vt 0.836426 0.559082
vt 0.897461 0.568115
vt 0.911224 0.917907
vt 0.831543 0.960876
vt 0.879395 0.921326
vt 0.931587 0.889314
vt 0.893066 0.883667
vt 0.902832 0.826416
vt 0.964355 0.823364
vt 0.930664 0.916870
vt 0.949707 0.922546
vt 0.973145 0.929565
vt 0.972656 0.964813
vt 0.898438 0.509521
vt 0.853516 0.493164
vt 0.835938 0.521973
vt 0.929359 0.888916
vt 0.911241 0.917897
vt 0.043091 0.815796
vt 0.053954 0.875923
vt 0.053505 0.817583
vt 0.043152 0.752675
vt 0.043208 0.689990
vt 0.055055 0.620158
vt 0.075199 0.695754
vt 0.075065 0.758784
vt 0.777901 0.028413
vt 0.975586 0.004883
vt 0.978027 0.175293
vt 0.967773 0.414551
vt 0.332275 0.395508
vt 0.995263 0.311636
vt 0.990234 0.378418
vt 0.994629 0.345703
vt 0.751953 0.505859
vt 0.799316 0.505859
vt 0.799316 0.549316
vt 0.751953 0.549316
vt 0.701660 0.505859
vt 0.701660 0.549316
vt 0.655762 0.505859
vt 0.655762 0.549316
vt 0.701660 0.620605
vt 0.751953 0.620605
vt 0.799316 0.620605
vt 0.612305 0.505859
vt 0.612305 0.549316
vt 0.564453 0.505859
vt 0.564453 0.549316
vt 0.564453 0.620605
vt 0.612305 0.620605
vt 0.655762 0.620605
vt 0.308044 0.155204
vt 0.092714 0.296013
vt 0.526743 0.066505
vt 0.995223 0.311334
vt 0.969727 0.739502
vt 0.952148 0.782715
vt 0.924805 0.798828
vt 0.969238 0.674316
vt 0.948730 0.622314
vt 0.921875 0.613770
vt 0.896484 0.786987
vt 0.877930 0.746826
vt 0.877930 0.684570
vt 0.895020 0.627441
vt 0.558594 0.786499
vt 0.558594 0.693604
vt 0.636055 0.704850
vt 0.642051 0.774588
vt 0.712891 0.715332
vt 0.712891 0.764771
vt 0.857422 0.739990
vt 0.759277 0.857910
vt 0.802246 0.857910
vt 0.802246 0.905273
vt 0.751953 0.905273
vt 0.712402 0.857910
vt 0.709961 0.905273
vt 0.659180 0.857910
vt 0.663086 0.905273
vt 0.706055 0.976028
vt 0.743652 0.976028
vt 0.781738 0.976028
vt 0.604004 0.857910
vt 0.610840 0.905273
vt 0.562988 0.857910
vt 0.563477 0.905273
vt 0.583496 0.976028
vt 0.619629 0.976028
vt 0.661133 0.976028
vt 0.075073 0.758789
vt 0.270752 0.561035
vt -0.001339 0.379883
s 0
f 1/1/1 2/2/1 3/3/1
f 4/4/2 5/5/2 6/6/2
f 7/7/3 8/8/3 9/9/3
f 10/10/4 8/8/4 7/7/4
f 7/7/5 11/11/5 10/10/5
f 12/12/6 10/10/6 11/11/6
f 11/11/7 13/13/7 12/12/7
f 6/6/8 12/12/8 13/13/8
f 6/6/9 13/13/9 4/4/9
f 11/11/10 7/7/10 14/14/10
f 14/14/11 15/15/11 11/11/11
f 13/13/12 11/11/12 15/15/12
f 16/16/13 15/15/13 14/14/13
f 14/14/14 17/17/14 16/16/14
f 16/16/15 17/17/15 18/18/15
f 19/19/16 20/20/16 18/18/16
f 21/21/17 19/19/17 18/18/17
f 18/18/18 22/22/18 21/21/18
f 22/22/19 18/18/19 17/17/19
f 17/17/20 23/23/20 22/22/20
f 23/23/21 17/17/21 14/14/21
f 14/14/22 24/24/22 23/23/22
f 25/25/23 24/24/23 14/14/23
f 14/14/24 7/7/24 25/25/24
f 26/26/25 21/21/25 22/22/25
f 22/22/26 27/27/26 26/26/26
f 27/27/27 22/22/27 23/23/27
f 27/27/28 23/23/28 24/24/28
f 24/24/29 28/28/29 27/27/29
f 25/25/30 28/28/30 24/24/30
f 29/29/31 28/28/31 25/25/31
f 25/25/32 9/9/32 29/29/32
f 9/9/33 25/25/33 7/7/33
f 28/28/34 29/29/34 30/30/34
f 31/31/35 27/27/35 28/28/35
f 28/28/36 32/32/36 31/31/36
f 30/30/37 32/32/37 28/28/37
f 30/30/38 33/33/38 32/32/38
f 32/32/39 33/33/39 31/31/39
f 31/31/40 33/33/40 34/34/40
f 27/27/41 31/31/41 34/34/41
f 34/34/42 26/26/42 27/27/42
f 35/35/43 36/36/43 37/37/43
f 37/37/44 38/38/44 35/35/44
f 39/39/45 38/38/45 37/37/45
f 37/37/46 40/40/46 39/39/46
f 41/31/47 42/32/47 43/28/47
f 43/28/48 42/32/48 30/30/48
f 42/32/49 33/33/49 30/30/49
f 41/31/50 33/33/50 42/32/50
f 44/34/51 33/33/51 41/31/51
f 45/14/52 46/7/52 47/41/52
f 48/25/53 46/7/53 45/14/53
f 45/14/54 49/24/54 48/25/54
f 49/24/55 43/28/55 48/25/55
f 50/42/56 43/28/56 49/24/56
f 43/28/57 50/42/57 41/31/57
f 44/34/58 41/31/58 50/42/58
f 50/42/59 51/26/59 44/34/59
f 51/26/60 50/42/60 52/22/60
f 45/14/61 53/43/61 54/44/61
f 47/41/62 53/43/62 45/14/62
f 53/43/63 47/41/63 55/45/63
f 54/44/64 56/46/64 57/47/64
f 56/46/65 54/44/65 53/43/65
f 53/43/66 58/48/66 56/46/66
f 58/48/67 53/43/67 55/45/67
f 59/5/68 58/48/68 55/45/68
f 55/45/69 60/6/69 59/5/69
f 55/45/70 61/12/70 60/6/70
f 61/12/71 55/45/71 47/41/71
f 47/41/72 62/49/72 61/12/72
f 63/50/73 62/49/73 47/41/73
f 64/8/74 63/50/74 47/41/74
f 47/41/75 46/7/75 64/8/75
f 9/9/76 64/8/76 46/7/76
f 46/7/77 48/25/77 9/9/77
f 29/29/78 9/9/78 48/25/78
f 48/25/79 43/28/79 29/29/79
f 30/30/80 29/29/80 43/28/80
f 65/51/81 66/52/81 67/53/81
f 68/54/82 67/53/82 66/52/82
f 69/55/83 67/53/83 68/54/83
f 69/55/84 70/56/84 67/53/84
f 67/53/85 70/56/85 71/57/85
f 71/57/86 72/47/86 67/53/86
f 65/51/87 67/53/87 72/47/87
f 68/54/88 73/58/88 69/55/88
f 66/52/89 65/51/89 74/59/89
f 74/59/90 75/60/90 66/52/90
f 76/61/91 75/60/91 74/59/91
f 77/4/92 76/61/92 74/59/92
f 78/62/93 76/61/93 77/4/93
f 76/61/94 78/62/94 79/63/94
f 80/64/95 76/61/95 79/63/95
f 76/61/96 80/64/96 75/60/96
f 79/63/97 81/65/97 80/64/97
f 52/22/98 82/23/98 83/17/98
f 83/17/99 84/66/99 52/22/99
f 82/23/100 52/22/100 50/42/100
f 49/24/101 82/23/101 50/42/101
f 82/23/102 49/24/102 45/14/102
f 45/14/103 83/17/103 82/23/103
f 54/44/104 83/17/104 45/14/104
f 84/66/105 83/17/105 54/44/105
f 52/22/106 21/21/106 51/26/106
f 21/21/107 52/22/107 84/66/107
f 84/66/108 85/19/108 21/21/108
f 84/66/109 86/67/109 85/19/109
f 87/57/110 86/67/110 84/66/110
f 84/66/111 57/47/111 87/57/111
f 57/47/112 84/66/112 54/44/112
f 88/68/113 89/69/113 90/70/113
f 91/71/114 90/70/114 89/69/114
f 89/69/115 92/72/115 91/71/115
f 93/73/116 94/74/116 3/3/116
f 3/3/117 94/74/117 1/1/117
f 95/75/118 96/76/118 97/35/118
f 97/35/119 98/38/119 95/75/119
f 99/77/120 95/75/120 98/38/120
f 98/38/121 100/39/121 99/77/121
f 101/78/122 102/79/122 103/80/122
f 101/78/123 103/80/123 104/81/123
f 104/81/124 103/80/124 105/82/124
f 106/83/125 104/81/125 105/82/125
f 106/83/126 107/84/126 104/81/126
f 104/81/127 108/85/127 101/78/127
f 104/81/128 109/86/128 108/85/128
f 109/86/129 104/81/129 110/87/129
f 110/87/130 111/88/130 109/86/130
f 107/84/131 110/87/131 104/81/131
f 112/89/132 113/40/132 114/37/132
f 114/37/133 115/90/133 112/89/133
f 116/91/134 115/90/134 114/37/134
f 114/37/135 117/36/135 116/91/135
f 118/86/136 119/88/136 120/87/136
f 121/85/137 118/86/137 122/92/137
f 120/87/138 122/92/138 118/86/138
f 122/92/139 120/87/139 123/84/139
f 124/83/140 122/92/140 123/84/140
f 124/83/141 125/82/141 122/92/141
f 125/82/142 126/80/142 122/92/142
f 122/92/143 126/80/143 127/93/143
f 128/79/144 127/93/144 126/80/144
f 127/93/145 121/85/145 122/92/145
f 129/94/146 130/65/146 131/95/146
f 131/95/147 132/96/147 129/94/147
f 133/97/148 129/94/148 132/96/148
f 134/98/149 135/99/149 136/54/149
f 137/58/150 136/54/150 135/99/150
f 135/99/151 138/55/151 137/58/151
f 135/99/152 134/98/152 139/100/152
f 140/101/153 139/100/153 134/98/153
f 134/98/154 133/97/154 140/101/154
f 140/101/155 133/97/155 132/96/155
f 141/47/156 135/99/156 139/100/156
f 140/101/157 132/96/157 142/4/157
f 143/5/158 142/4/158 132/96/158
f 132/96/159 131/95/159 143/5/159
f 135/99/160 144/56/160 138/55/160
f 144/56/161 135/99/161 141/47/161
f 141/47/162 145/57/162 144/56/162
f 146/102/163 147/103/163 148/104/163
f 146/102/164 149/105/164 150/106/164
f 149/105/165 146/102/165 148/104/165
f 149/105/166 148/104/166 151/107/166
f 152/108/167 149/105/167 151/107/167
f 151/107/168 153/109/168 152/108/168
f 154/71/169 155/1/169 156/74/169
f 156/74/170 157/70/170 154/71/170
f 157/70/171 156/74/171 158/73/171
f 159/110/172 160/111/172 161/112/172
f 161/112/173 162/113/173 159/110/173
f 163/114/174 159/110/174 162/113/174
f 162/113/175 164/115/175 163/114/175
f 165/116/176 163/114/176 164/115/176
f 164/115/177 166/117/177 165/116/177
f 167/118/178 164/115/178 162/113/178
f 162/113/179 168/119/179 167/118/179
f 168/119/180 162/113/180 161/112/180
f 161/112/181 169/120/181 168/119/181
f 170/121/182 165/116/182 166/117/182
f 166/117/183 171/122/183 170/121/183
f 172/123/184 170/121/184 171/122/184
f 171/122/185 173/124/185 172/123/185
f 174/125/186 173/124/186 171/122/186
f 171/122/187 175/126/187 174/125/187
f 175/126/188 171/122/188 166/117/188
f 166/117/189 176/127/189 175/126/189
f 176/127/190 166/117/190 164/115/190
f 164/115/191 167/118/191 176/127/191
f 177/128/192 178/129/192 179/106/192
f 180/130/193 179/106/193 181/105/193
f 182/108/194 183/109/194 184/131/194
f 184/131/195 181/105/195 182/108/195
f 185/104/196 181/105/196 184/131/196
f 185/104/197 146/102/197 181/105/197
f 185/104/198 147/103/198 146/102/198
f 186/132/199 187/133/199 188/134/199
f 189/135/200 186/132/200 188/134/200
f 190/136/201 189/135/201 188/134/201
f 191/137/202 190/136/202 188/134/202
f 188/134/203 192/138/203 193/139/203
f 188/134/204 193/139/204 194/140/204
f 191/137/205 188/134/205 194/140/205
f 195/141/206 191/137/206 194/140/206
f 196/142/207 197/143/207 198/144/207
f 198/144/208 199/145/208 196/142/208
f 199/145/209 198/144/209 200/146/209
f 200/146/210 201/147/210 199/145/210
f 202/148/211 201/147/211 200/146/211
f 203/149/212 204/150/212 205/151/212
f 205/151/213 206/152/213 203/149/213
f 207/153/214 203/149/214 206/152/214
f 206/152/215 208/154/215 207/153/215
f 209/155/216 207/153/216 208/154/216
f 208/154/217 210/156/217 209/155/217
f 211/157/218 208/154/218 206/152/218
f 206/152/219 212/158/219 211/157/219
f 212/158/220 206/152/220 205/151/220
f 205/151/221 213/159/221 212/158/221
f 214/160/222 209/155/222 210/156/222
f 210/156/223 215/161/223 214/160/223
f 216/162/224 214/160/224 215/161/224
f 215/161/225 217/163/225 216/162/225
f 218/164/226 217/163/226 215/161/226
f 215/161/227 219/165/227 218/164/227
f 219/165/228 215/161/228 210/156/228
f 210/156/229 220/166/229 219/165/229
f 220/166/230 210/156/230 208/154/230
f 208/154/231 211/157/231 220/166/231
f 221/167/232 4/4/232 13/13/232
f 13/13/233 15/15/233 221/167/233
f 222/46/234 221/167/234 15/15/234
f 15/15/235 16/16/235 222/46/235
f 223/47/236 222/46/236 16/16/236
f 16/16/237 18/18/237 223/47/237
f 224/57/238 223/47/238 18/18/238
f 18/18/239 225/168/239 224/57/239
f 20/20/240 225/168/240 18/18/240
f 150/106/241 226/169/241 178/129/241
f 150/106/242 178/129/242 177/128/242
f 180/130/243 150/106/243 177/128/243
f 180/130/244 146/102/244 150/106/244
f 178/129/245 226/169/245 179/106/245
f 180/130/246 177/128/246 179/106/246
f 180/130/247 181/105/247 146/102/247
