# Blender v2.81 (sub 16) OBJ File: 'singlecard.blend'
# www.blender.org
o Cube.001_Cube.005
v -8.025105 0.020257 13.695815
v -8.025105 0.347890 13.695815
v -8.025105 0.020257 -13.695815
v -8.025105 0.347890 -13.695815
v 8.025105 0.020257 13.695815
v 8.025105 0.347890 13.695815
v 8.025105 0.020257 -13.695815
v 8.025105 0.347890 -13.695815
vt 0.998450 0.997153
vt 0.997413 0.002356
vt 0.978610 0.006028
vt 0.978791 0.994448
vt 0.516767 0.999775
vt 0.997931 0.999775
vt 0.997075 0.970785
vt 0.518479 0.972060
vt 0.527041 0.015428
vt 0.527041 0.997571
vt 0.504077 0.996771
vt 0.506980 0.014470
vt 0.517254 0.966000
vt 0.997321 0.965936
vt 0.997321 0.995951
vt 0.513829 0.997290
vt 0.501560 0.001913
vt 0.998103 0.002330
vt 0.998103 0.999461
vt 0.501560 0.999044
vt 0.000082 0.000082
vt 0.506164 -0.001525
vt 0.506164 0.998311
vt 0.000082 0.999918
vn -1.0000 0.0000 0.0000
vn 0.0000 0.0000 -1.0000
vn 1.0000 0.0000 0.0000
vn 0.0000 0.0000 1.0000
vn 0.0000 -1.0000 0.0000
vn 0.0000 1.0000 0.0000
s off
f 1/1/1 2/2/1 4/3/1 3/4/1
f 3/5/2 4/6/2 8/7/2 7/8/2
f 7/9/3 8/10/3 6/11/3 5/12/3
f 5/13/4 6/14/4 2/15/4 1/16/4
f 3/17/5 7/18/5 5/19/5 1/20/5
f 8/21/6 4/22/6 2/23/6 6/24/6
