# Blender 4.1.1
# www.blender.org
o Plane
v 0.000000 0.000000 1.000000
v 0.000000 -0.000000 -1.000000
v 0.000000 2.000000 1.000000
v 0.000000 2.000000 -1.000000
v -0.287122 -2.123769 3.123770
v -0.287122 -2.123770 -3.123769
v -0.287122 4.123770 3.123769
v -0.287122 4.123770 -3.123770
vn 1.0000 -0.0000 -0.0000
vt 0.000000 0.000000
vt 1.000000 0.000000
vt 1.000000 1.000000
vt 0.000000 1.000000
s 0
usemtl SinglePixel_Black
f 5/1/1 6/2/1 8/3/1 7/4/1
usemtl AlicePlayer.menuMirrorReflection
f 1/1/1 2/2/1 4/3/1 3/4/1
